<?xml version="1.0" encoding="UTF-8" standalone="no"?>
<!DOCTYPE svg PUBLIC "-//W3C//DTD SVG 1.1//EN" "http://www.w3.org/Graphics/SVG/1.1/DTD/svg11.dtd">
<svg version="1.1" xmlns="http://www.w3.org/2000/svg" xmlns:xlink="http://www.w3.org/1999/xlink" preserveAspectRatio="xMidYMid meet" viewBox="0 0 640 640" width="16" height="16"><defs><path d="M287.77 241.21L287.91 241.26L288.04 241.32L288.16 241.4L288.27 241.49L288.37 241.6L288.46 241.72L291.3 245.97L291.37 246.09L291.43 246.23L291.47 246.36L291.49 246.5L291.5 246.64L291.5 246.78L291.47 246.92L291.44 247.05L291.38 247.18L291.32 247.31L291.23 247.42L291.14 247.53L291.03 247.63L289.44 248.86L289.39 248.9L289.35 248.95L289.31 248.99L289.29 249.04L289.26 249.09L289.24 249.15L289.23 249.21L289.23 249.26L289.23 249.32L289.24 249.38L289.25 249.44L289.27 249.49L289.3 249.55L289.43 249.78L289.53 249.96L289.63 250.16L289.75 250.36L289.89 250.58L290.04 250.81L290.21 251.06L290.41 251.33L290.64 251.62L290.9 251.94L291.19 252.28L291.53 252.65L291.91 253.05L292.34 253.49L292.77 253.92L293.17 254.3L293.55 254.63L293.89 254.93L294.2 255.19L294.5 255.42L294.77 255.62L295.02 255.79L295.25 255.94L295.47 256.08L295.67 256.2L295.86 256.3L296.05 256.41L296.29 256.53L296.34 256.56L296.4 256.58L296.45 256.59L296.51 256.6L296.57 256.6L296.62 256.59L296.68 256.58L296.73 256.56L296.78 256.54L296.83 256.51L296.88 256.48L296.92 256.44L296.96 256.39L298.2 254.8L298.3 254.69L298.4 254.59L298.52 254.51L298.64 254.44L298.77 254.39L298.91 254.35L299.05 254.33L299.18 254.32L299.32 254.33L299.46 254.36L299.6 254.4L299.73 254.45L299.86 254.53L304.11 257.36L304.23 257.45L304.34 257.56L304.43 257.67L304.51 257.79L304.57 257.92L304.62 258.05L304.65 258.19L304.66 258.33L304.66 258.47L304.64 258.61L304.61 258.75L304.55 258.89L304.48 259.03L303.42 260.8L303.34 260.93L303.25 261.05L303.16 261.17L303.06 261.28L302.95 261.38L302.84 261.47L302.73 261.56L302.61 261.65L302.48 261.72L302.35 261.79L302.21 261.85L302.08 261.9L301.94 261.95L301.81 261.98L301.69 262.01L301.56 262.04L301.43 262.06L301.31 262.08L301.18 262.1L301.05 262.12L300.93 262.13L300.8 262.14L300.67 262.15L300.55 262.16L300.42 262.16L300.29 262.16L299.71 262.14L299.1 262.06L298.44 261.93L297.75 261.74L297.01 261.48L296.23 261.14L295.42 260.72L294.56 260.21L293.66 259.61L292.72 258.92L291.74 258.12L290.71 257.21L289.65 256.18L288.37 254.84L287.28 253.58L286.36 252.38L285.6 251.24L284.98 250.17L284.49 249.16L284.13 248.22L283.88 247.35L283.73 246.53L283.67 245.78L283.68 245.09L283.75 244.46L283.88 243.89L283.92 243.75L283.98 243.61L284.04 243.48L284.1 243.35L284.18 243.22L284.26 243.1L284.35 242.98L284.45 242.87L284.55 242.77L284.66 242.67L284.77 242.57L284.9 242.49L285.02 242.41L286.8 241.34L286.93 241.27L287.07 241.22L287.21 241.18L287.35 241.17L287.5 241.16L287.64 241.18L287.77 241.21ZM287.34 241.87L287.28 241.89L287.22 241.91L287.16 241.94L285.38 243.01L285.29 243.07L285.2 243.13L285.12 243.19L285.04 243.27L284.97 243.34L284.9 243.42L284.83 243.51L284.77 243.59L284.72 243.68L284.67 243.78L284.63 243.87L284.59 243.97L284.55 244.07L284.44 244.6L284.37 245.18L284.37 245.83L284.43 246.53L284.58 247.29L284.83 248.12L285.18 249L285.65 249.95L286.25 250.97L286.98 252.05L287.87 253.19L288.92 254.4L290.14 255.68L291.42 256.91L292.63 257.95L293.78 258.84L294.86 259.58L295.87 260.18L296.82 260.64L297.71 261L298.53 261.24L299.3 261.39L300 261.46L300.64 261.45L301.23 261.39L301.75 261.27L301.85 261.24L301.95 261.2L302.05 261.16L302.14 261.11L302.23 261.06L302.32 261L302.4 260.93L302.48 260.86L302.56 260.79L302.63 260.71L302.7 260.62L302.76 260.54L302.82 260.45L303.88 258.67L303.91 258.61L303.94 258.55L303.95 258.49L303.96 258.43L303.96 258.37L303.95 258.31L303.94 258.25L303.92 258.19L303.89 258.13L303.86 258.08L303.82 258.03L303.77 257.99L303.72 257.95L299.47 255.11L299.41 255.08L299.36 255.06L299.3 255.04L299.24 255.03L299.18 255.02L299.12 255.03L299.06 255.04L299 255.05L298.94 255.08L298.89 255.11L298.84 255.14L298.79 255.18L298.75 255.23L297.51 256.82L297.42 256.93L297.32 257.02L297.21 257.1L297.1 257.17L296.98 257.22L296.85 257.26L296.72 257.29L296.59 257.3L296.46 257.3L296.32 257.28L296.19 257.25L296.07 257.2L295.94 257.14L295.71 257.02L295.52 256.91L295.32 256.8L295.1 256.67L294.87 256.53L294.63 256.37L294.37 256.19L294.09 255.99L293.78 255.75L293.45 255.48L293.09 255.17L292.71 254.82L292.29 254.43L291.84 253.99L291.4 253.53L291 253.12L290.65 252.73L290.35 252.37L290.07 252.04L289.84 251.74L289.63 251.46L289.45 251.2L289.29 250.95L289.15 250.72L289.03 250.51L288.91 250.31L288.81 250.11L288.68 249.88L288.62 249.76L288.57 249.63L288.54 249.5L288.53 249.37L288.52 249.23L288.54 249.1L288.56 248.97L288.6 248.85L288.66 248.73L288.72 248.61L288.81 248.5L288.9 248.41L289.01 248.31L290.59 247.07L290.64 247.03L290.68 246.98L290.72 246.93L290.75 246.88L290.77 246.82L290.79 246.77L290.8 246.71L290.8 246.65L290.8 246.59L290.79 246.53L290.77 246.47L290.74 246.41L290.71 246.36L289.42 244.41L287.88 242.11L287.84 242.05L287.8 242.01L287.75 241.97L287.7 241.93L287.64 241.91L287.58 241.89L287.52 241.87L287.46 241.87L287.4 241.87L287.34 241.87Z" id="b2qXPtm7Jn"></path><path d="M300.26 245.91L301.69 248.02L302.21 250.61L302.18 250.75L302.11 250.86L302 250.94L301.86 250.97L301.73 250.94L301.61 250.86L301.54 250.75L301.51 250.61L301.04 248.3L299.77 246.41L297.88 245.13L295.56 244.66L295.43 244.64L295.32 244.56L295.24 244.45L295.21 244.32L295.24 244.18L295.32 244.07L295.43 243.99L295.56 243.97L298.15 244.49L300.26 245.91Z" id="a25b2jeuNg"></path><path d="M298.78 247.4L299.75 248.84L300.11 250.61L300.08 250.75L300.01 250.86L299.9 250.94L299.76 250.97L299.62 250.94L299.51 250.86L299.44 250.75L299.41 250.61L299.11 249.12L298.28 247.89L297.06 247.07L295.56 246.77L295.43 246.74L295.32 246.66L295.24 246.55L295.21 246.41L295.24 246.28L295.32 246.17L295.43 246.09L295.56 246.06L297.33 246.42L298.78 247.4Z" id="a1eVtHhsoC"></path><path d="M297.29 248.88L297.82 249.66L298.01 250.61L297.99 250.75L297.91 250.86L297.8 250.94L297.66 250.97L297.52 250.94L297.41 250.86L297.34 250.75L297.31 250.61L297.17 249.93L296.8 249.38L296.24 249L295.56 248.86L295.43 248.84L295.32 248.76L295.24 248.65L295.21 248.51L295.24 248.38L295.32 248.27L295.43 248.19L295.56 248.17L296.52 248.36L297.29 248.88Z" id="bo3JExGFp"></path></defs><g><g><g><use xlink:href="#b2qXPtm7Jn" opacity="1" fill="#ffffff" fill-opacity="1"></use><g><use xlink:href="#b2qXPtm7Jn" opacity="1" fill-opacity="0" stroke="#000000" stroke-width="1" stroke-opacity="0"></use></g></g><g><use xlink:href="#a25b2jeuNg" opacity="1" fill="#ffffff" fill-opacity="1"></use><g><use xlink:href="#a25b2jeuNg" opacity="1" fill-opacity="0" stroke="#000000" stroke-width="1" stroke-opacity="0"></use></g></g><g><use xlink:href="#a1eVtHhsoC" opacity="1" fill="#ffffff" fill-opacity="1"></use><g><use xlink:href="#a1eVtHhsoC" opacity="1" fill-opacity="0" stroke="#000000" stroke-width="1" stroke-opacity="0"></use></g></g><g><use xlink:href="#bo3JExGFp" opacity="1" fill="#ffffff" fill-opacity="1"></use><g><use xlink:href="#bo3JExGFp" opacity="1" fill-opacity="0" stroke="#000000" stroke-width="1" stroke-opacity="0"></use></g></g></g></g></svg>