<?xml version="1.0" encoding="UTF-8"?>
<svg xmlns="http://www.w3.org/2000/svg" xmlns:xlink="http://www.w3.org/1999/xlink" width="16pt" height="16pt" viewBox="0 0 16 16" version="1.1">
<g id="surface1">
<path style=" stroke:none;fill-rule:nonzero;fill:rgb(0%,0%,0%);fill-opacity:1;" d="M 15.582031 12.34375 L 12.339844 10.183594 C 11.929688 9.910156 11.378906 10 11.074219 10.390625 L 10.132812 11.601562 C 10.011719 11.761719 9.792969 11.808594 9.617188 11.710938 L 9.4375 11.613281 C 8.839844 11.289062 8.101562 10.882812 6.609375 9.390625 C 5.117188 7.898438 4.714844 7.160156 4.390625 6.566406 L 4.292969 6.386719 C 4.191406 6.210938 4.238281 5.988281 4.398438 5.867188 L 5.609375 4.925781 C 6 4.621094 6.085938 4.070312 5.816406 3.660156 L 3.65625 0.421875 C 3.378906 0 2.820312 -0.125 2.390625 0.136719 L 1.035156 0.949219 C 0.609375 1.199219 0.296875 1.605469 0.164062 2.078125 C -0.324219 3.855469 0.0429688 6.921875 4.558594 11.441406 C 8.152344 15.03125 10.828125 16 12.667969 16 C 13.089844 16 13.511719 15.945312 13.921875 15.835938 C 14.394531 15.703125 14.800781 15.390625 15.050781 14.964844 L 15.863281 13.609375 C 16.125 13.179688 16 12.621094 15.582031 12.34375 Z M 15.40625 13.335938 L 14.59375 14.691406 C 14.414062 15 14.121094 15.226562 13.78125 15.320312 C 12.140625 15.773438 9.273438 15.398438 4.9375 11.0625 C 0.601562 6.726562 0.226562 3.859375 0.679688 2.21875 C 0.777344 1.878906 1 1.585938 1.308594 1.40625 L 2.664062 0.59375 C 2.851562 0.480469 3.09375 0.535156 3.214844 0.71875 L 4.386719 2.476562 L 5.371094 3.957031 C 5.488281 4.132812 5.449219 4.371094 5.28125 4.503906 L 4.070312 5.449219 C 3.699219 5.730469 3.59375 6.238281 3.824219 6.644531 L 3.917969 6.820312 C 4.261719 7.445312 4.683594 8.222656 6.230469 9.769531 C 7.777344 11.316406 8.554688 11.738281 9.179688 12.078125 L 9.355469 12.175781 C 9.757812 12.402344 10.269531 12.296875 10.550781 11.929688 L 11.496094 10.71875 C 11.625 10.550781 11.867188 10.511719 12.042969 10.628906 L 15.28125 12.789062 C 15.464844 12.910156 15.519531 13.152344 15.40625 13.335938 Z M 15.40625 13.335938 "/>
<path style=" stroke:none;fill-rule:nonzero;fill:rgb(0%,0%,0%);fill-opacity:1;" d="M 9.066406 2.667969 C 11.566406 2.671875 13.597656 4.699219 13.597656 7.199219 C 13.597656 7.347656 13.71875 7.46875 13.867188 7.46875 C 14.011719 7.46875 14.132812 7.347656 14.132812 7.199219 C 14.128906 4.402344 11.863281 2.136719 9.066406 2.136719 C 8.917969 2.136719 8.800781 2.253906 8.800781 2.402344 C 8.800781 2.546875 8.917969 2.667969 9.066406 2.667969 Z M 9.066406 2.667969 "/>
<path style=" stroke:none;fill-rule:nonzero;fill:rgb(0%,0%,0%);fill-opacity:1;" d="M 9.066406 4.269531 C 10.683594 4.269531 11.996094 5.582031 12 7.199219 C 12 7.347656 12.117188 7.46875 12.265625 7.46875 C 12.414062 7.46875 12.53125 7.347656 12.53125 7.199219 C 12.53125 5.289062 10.980469 3.738281 9.066406 3.734375 C 8.917969 3.734375 8.800781 3.855469 8.800781 4 C 8.800781 4.148438 8.917969 4.269531 9.066406 4.269531 Z M 9.066406 4.269531 "/>
<path style=" stroke:none;fill-rule:nonzero;fill:rgb(0%,0%,0%);fill-opacity:1;" d="M 9.066406 5.867188 C 9.800781 5.867188 10.398438 6.464844 10.398438 7.199219 C 10.398438 7.347656 10.519531 7.46875 10.664062 7.46875 C 10.8125 7.46875 10.933594 7.347656 10.933594 7.199219 C 10.929688 6.171875 10.097656 5.335938 9.066406 5.335938 C 8.917969 5.335938 8.800781 5.453125 8.800781 5.601562 C 8.800781 5.75 8.917969 5.867188 9.066406 5.867188 Z M 9.066406 5.867188 "/>
</g>
</svg>
